# xmcd
#
# Track frame offsets:
#	150
#	22865
#	40712
#	56378
#	71596
#	89239
#	106614
#	120243
#	147923
#	165400
#	179850
#	194292
#	211118
#
# Disc length: 3020 seconds
#
# Revision: 1
# Processed by: cddbd v1.4PL0 Copyright (c) Steve Scherf et al.
# Submitted via: dBpowerAMP V4.0
#
DISCID=a90bca0d
DTITLE=Musical JM - A Princesa e o Pobretão
DYEAR=2001
DGENRE=Bandinha
TTITLE0=Artistas Convidados
TTITLE1=A princesa e o pobretão
TTITLE2=Patricinhas do baile
TTITLE3=Ainda sou seu namorado
TTITLE4=Drama
TTITLE5=Depois do baile
TTITLE6=Feliz aniversário ao vivo
TTITLE7=O último baile ao vivo
TTITLE8=Manda ela embora
TTITLE9=Gordinha
TTITLE10=Meus bens pra lá
TTITLE11=Fruto do baile
TTITLE12=Para você mamãe
EXTD=
EXTT0=
EXTT1=
EXTT2=
EXTT3=
EXTT4=
EXTT5=
EXTT6=
EXTT7=
EXTT8=
EXTT9=
EXTT10=
EXTT11=
EXTT12=
PLAYORDER=
